PathFileType	4	(X/Y/Z)	C:\Users\Basilio\Documents\Thesis Gigler\squatting_fais\c3dfiles\044\SLS_front_pre4\markers_experimental.trc
DataRate	CameraRate	NumFrames	NumMarkers	Units	OrigDataRate	OrigDataStartFrame	OrigNumFrames
200.000000	200.000000	4	60	mm	200.000000	484	1293
Frame#	Time	FHD			LBHD			RBHD			C7			T10			LSHO			LUUPA			LMUPA			LDUPA			LLEP			LMEP			LUL			LRFIN			RSHO			RUPA1			RMUPA			RDUPA			RLEP			RMEP			RUL			LASI			RASI			USACR			LSACR			RSACR			LTHI1			LTHI2			LTHI3			LTHI4			LLFC			LMFC			LTIB1			LTIB2			LTIB3			LTIB4			LLMAL			LMMAL			LHEE			LMT1			LMT2			LMT5			RTHI			RTHI2			RTHI3			RTHI4			RLFC			RMFC			RTIB1			RTIB2			RTIB3			RTIB4			RLMAL			RHEE			RMT1			RMT2			RMT5			RUFIN			CLAV			LRAD			RMMAL			
		X1	Y1	Z1	X2	Y2	Z2	X3	Y3	Z3	X4	Y4	Z4	X5	Y5	Z5	X6	Y6	Z6	X7	Y7	Z7	X8	Y8	Z8	X9	Y9	Z9	X10	Y10	Z10	X11	Y11	Z11	X12	Y12	Z12	X13	Y13	Z13	X14	Y14	Z14	X15	Y15	Z15	X16	Y16	Z16	X17	Y17	Z17	X18	Y18	Z18	X19	Y19	Z19	X20	Y20	Z20	X21	Y21	Z21	X22	Y22	Z22	X23	Y23	Z23	X24	Y24	Z24	X25	Y25	Z25	X26	Y26	Z26	X27	Y27	Z27	X28	Y28	Z28	X29	Y29	Z29	X30	Y30	Z30	X31	Y31	Z31	X32	Y32	Z32	X33	Y33	Z33	X34	Y34	Z34	X35	Y35	Z35	X36	Y36	Z36	X37	Y37	Z37	X38	Y38	Z38	X39	Y39	Z39	X40	Y40	Z40	X41	Y41	Z41	X42	Y42	Z42	X43	Y43	Z43	X44	Y44	Z44	X45	Y45	Z45	X46	Y46	Z46	X47	Y47	Z47	X48	Y48	Z48	X49	Y49	Z49	X50	Y50	Z50	X51	Y51	Z51	X52	Y52	Z52	X53	Y53	Z53	X54	Y54	Z54	X55	Y55	Z55	X56	Y56	Z56	X57	Y57	Z57	X58	Y58	Z58	X59	Y59	Z59	X60	Y60	Z60	

485	2.42	-208.4230346679688	1692.359985351563	-1063.694091796875	-338.1681518554688	1649.449584960938	-1142.917358398438	-384.355682373047	1634.708740234375	-983.5457153320315	-400.2444763183595	1472.900634765625	-1066.931030273438	-458.1739196777345	1180.716674804688	-1033.794555664063	-301.5471801757813	1472.828369140625	-1207.967041015625	-135.699935913086	1428.690551757813	-1298.077026367188	-109.4893112182617	1439.899169921875	-1255.44970703125	-67.90525817871095	1416.782470703125	-1294.922973632813	-9.813992500305178	1412.016845703125	-1282.636840820313	-27.97970008850098	1337.903930664063	-1261.364501953125	238.8839416503907	1411.265625	-1154.603759765625	247.7939605712891	1432.760009765625	-1054.373413085938	-319.3231811523438	1483.6162109375	-908.2192382812502	-168.7809295654297	1451.046752929688	-804.9082641601565	-137.4787292480469	1462.335693359375	-843.3865966796877	-99.50356292724612	1444.706909179688	-801.2774047851565	-38.00208282470704	1441.672607421875	-810.6383056640627	-47.20121765136719	1361.603393554688	-818.9294433593752	219.7896270751954	1429.688598632813	-922.8384399414065	-315.7618103027344	960.5039672851565	-1104.165771484375	-325.9369506835938	973.0164794921877	-889.3917236328127	-483.6858215332032	1024.226684570313	-1004.498291015625	-490.9825439453126	989.434265136719	-1027.072998046875	-495.1586914062501	1000.478210449219	-972.265075683594	-319.3000183105469	727.9093017578126	-1170.913452148438	-250.6811065673829	679.1928100585939	-1171.607177734375	-210.5381317138672	703.8906860351564	-1164.31201171875	-245.948226928711	619.9208984375001	-1155.72607421875	-163.7387237548828	492.9830932617189	-1134.111694335938	-156.9006652832032	499.8767089843751	-1013.269958496094	-188.8094635009766	331.8744812011719	-1036.239868164063	-229.2093200683594	286.7192382812501	-1101.88427734375	-200.3307037353516	279.3818969726563	-1062.58056640625	-244.9289855957032	218.5775909423829	-1024.063354492188	-335.7960510253907	125.3883743286133	-1061.66162109375	-314.5300292968751	139.1115112304688	-977.227966308594	-407.3574218750001	111.1785125732422	-1008.422485351563	-201.3565368652344	62.0282554626465	-984.492858886719	-200.5405578613282	61.51403808593751	-1031.555541992188	-238.5452117919922	49.34010696411134	-1078.34814453125	-269.4946289062501	740.7778320312501	-791.877868652344	-202.3899383544922	728.8543090820314	-796.7010498046877	-181.2242126464844	751.8118286132814	-809.763610839844	-169.3123016357422	651.7890625000001	-806.5391235351565	-107.4246673583985	563.4456176757814	-809.0159301757815	-115.9729537963867	544.7824707031251	-928.7254638671877	-21.64378929138184	458.0164794921876	-831.1868286132815	-63.77429580688478	370.1132507324219	-778.100036621094	-23.56492805480957	376.2070922851563	-797.6892089843752	1.826823353767395	330.2796936035157	-820.8016357421877	-8.520570755004885	164.4915008544922	-792.8311157226565	-45.30990219116212	99.159782409668	-831.0193481445315	149.558837890625	175.8106842041016	-865.965270996094	156.9084930419922	181.8033905029297	-829.270690917969	134.2754058837891	152.1433715820313	-774.1416625976565	241.0290069580079	1406.638916015625	-1035.191284179688	-266.6135253906251	1420.06494140625	-1059.031860351563	220.1972808837891	1365.818481445313	-1103.927490234375	5.386739253997804	172.6152648925782	-877.2197265625002	
486	2.425	-207.7919158935547	1691.366821289063	-1064.009643554688	-337.8287963867188	1648.41796875	-1143.018188476563	-384.0625915527345	1633.480346679688	-983.8146972656252	-399.9175415039064	1471.785278320313	-1067.067626953125	-458.4272460937501	1179.611328125	-1033.756591796875	-301.3318176269532	1471.286987304688	-1208.139282226563	-134.2726135253907	1427.76220703125	-1299.341674804688	-109.1030349731446	1438.527954101563	-1255.591064453125	-67.76245117187501	1415.576171875	-1294.815063476563	-9.617868423461916	1411.894775390625	-1282.902709960938	-27.68408203125001	1336.119995117188	-1261.33203125	238.9914855957032	1409.90869140625	-1154.594848632813	248.0175323486329	1431.774536132813	-1054.43603515625	-318.9091186523438	1482.755981445313	-908.4976806640627	-168.5129852294922	1450.123291015625	-805.0754394531252	-137.0991363525391	1461.152465820313	-843.461853027344	-99.131462097168	1443.797973632813	-801.4584960937502	-37.77571105957032	1440.814331054688	-810.8306884765627	-47.01149368286134	1360.817260742188	-819.380065917969	219.9954376220704	1428.488403320313	-922.8584594726565	-316.6466979980469	959.4331054687502	-1104.202270507813	-326.5244750976563	972.2039794921877	-889.3258056640627	-484.3392944335939	1023.434753417969	-1004.536560058594	-491.5298767089845	988.637878417969	-1027.113403320313	-495.5072631835939	999.7777099609377	-972.3186035156252	-319.8676757812501	727.2713012695314	-1170.87451171875	-250.8825378417969	678.7940063476564	-1171.91552734375	-210.8469390869141	703.2749023437501	-1164.637817382813	-245.9197998046876	619.3013305664064	-1156.13818359375	-163.2583465576172	492.6901245117189	-1134.62939453125	-156.3731842041016	499.7235412597657	-1013.760559082031	-188.40087890625	331.7374267578126	-1036.685913085938	-228.2321319580079	286.2799987792969	-1102.4443359375	-200.5181274414063	279.3075256347657	-1062.797729492188	-244.7646179199219	218.3808288574219	-1024.277221679688	-335.8081665039063	125.2649917602539	-1061.74365234375	-314.4494323730469	139.1299285888672	-977.3755493164065	-407.3992614746095	111.2554626464844	-1008.455322265625	-201.3740997314454	62.04862213134767	-984.5217285156252	-200.5681915283204	61.41957855224611	-1031.622192382813	-238.4658203125001	49.1863479614258	-1078.368286132813	-269.3520507812501	740.2008666992189	-791.7398681640627	-202.3070526123047	728.8929443359376	-796.6509399414065	-181.2156829833985	751.7984619140626	-809.7828369140627	-168.8276977539063	651.9926757812501	-806.6257324218752	-106.7643585205078	563.8356323242189	-808.8972778320315	-115.0847854614258	545.1188354492189	-928.7138671875002	-20.70481300354004	458.3659057617189	-830.9339599609377	-62.75324630737306	370.6100463867188	-777.952819824219	-22.43727684020996	376.7699584960938	-797.667907714844	3.115747928619386	330.7592773437501	-820.6157226562502	-6.907443523406984	165.0830535888672	-792.5845336914065	-43.60551452636719	100.0500793457032	-830.917175292969	150.9589233398438	176.652816772461	-866.0228271484377	157.9252014160157	182.9142761230469	-830.4614257812502	136.062973022461	153.2293243408203	-774.224548339844	241.2272186279297	1405.4033203125	-1035.261474609375	-266.4060058593751	1418.885375976563	-1059.189453125	220.2710418701172	1364.570190429688	-1103.947509765625	7.020286083221437	173.31396484375	-877.1209716796877	
487	2.43	-207.2176666259766	1689.949829101563	-1064.03564453125	-337.1488647460938	1647.543334960938	-1143.320434570313	-383.4855651855469	1632.533569335938	-984.0066528320315	-399.5147705078126	1470.811645507813	-1067.23193359375	-458.6401672363282	1179.067138671875	-1034.045166015625	-300.9639587402344	1470.259887695313	-1208.359252929688	-135.2275695800782	1426.011596679688	-1298.274780273438	-108.8786697387696	1437.33740234375	-1255.701904296875	-67.23770141601564	1414.220092773438	-1295.151611328125	-9.479930877685549	1409.895629882813	-1282.798706054688	-27.64197349548341	1335.44482421875	-1261.2490234375	239.5864257812501	1408.40283203125	-1154.552490234375	248.355209350586	1430.335571289063	-1054.64453125	-318.8394165039063	1481.874267578125	-908.6792602539065	-168.5849761962891	1449.432250976563	-805.6762695312502	-136.9464111328125	1460.211303710938	-843.6479492187502	-98.92835235595706	1442.584228515625	-801.4157714843752	-37.58500289916993	1439.698486328125	-810.8005371093752	-46.69738388061524	1359.617309570313	-819.499206542969	220.1156005859376	1427.622436523438	-923.0551757812502	-317.7418823242188	958.8232421875002	-1103.974365234375	-327.2397766113282	971.4451904296877	-889.4062500000002	-484.7098999023439	1022.422485351563	-1004.613098144531	-491.9666137695314	987.905456542969	-1027.218994140625	-495.9961242675782	998.642761230469	-972.3935546875002	-320.0087585449219	726.6806640625001	-1171.192260742188	-250.8962554931641	678.2807006835939	-1172.337524414063	-210.9575805664063	702.9022827148439	-1165.024536132813	-245.9215698242188	618.8801269531251	-1156.500244140625	-162.994125366211	492.4566955566407	-1135.04052734375	-156.0064239501953	499.5592651367189	-1014.154174804688	-188.0576477050782	331.5730285644532	-1037.23828125	-227.880599975586	286.2183227539063	-1102.771728515625	-200.0782318115235	279.2431335449219	-1063.275024414063	-244.5413665771485	218.1315612792969	-1024.633056640625	-335.7333984375001	125.2311096191407	-1061.914306640625	-314.3559265136719	139.1750183105469	-977.5527954101565	-407.3813781738282	111.2356185913086	-1008.477111816406	-201.3779602050782	62.07711791992189	-984.629821777344	-200.5507812500001	61.29304885864259	-1031.675659179688	-238.4851226806641	49.06884384155275	-1078.460083007813	-269.3721008300782	740.1635131835939	-791.8455810546877	-202.2000885009766	728.7802124023439	-796.4803466796877	-181.20556640625	751.8546752929689	-809.768737792969	-168.1721801757813	651.8727416992189	-806.6838989257815	-106.1807937622071	564.4856567382814	-809.1079711914065	-114.3159255981446	545.4379882812501	-928.6765136718752	-19.61834907531739	459.125457763672	-831.4274902343752	-61.42264938354494	371.1018981933594	-777.8503417968752	-21.1639404296875	377.3922424316407	-797.693298339844	4.436275482177735	331.4465942382813	-820.624938964844	-5.272487163543702	166.033676147461	-792.971130371094	-41.64402389526368	100.5303039550782	-831.3990478515627	152.4077758789063	177.7857360839844	-866.1428222656252	159.5485076904297	183.7855682373047	-830.2363891601565	137.4949951171875	154.0945892333985	-774.3235473632815	241.6241149902344	1404.1748046875	-1035.373168945313	-266.2817382812501	1417.484497070313	-1059.289672851563	220.6012725830079	1363.400634765625	-1103.988525390625	8.653841972351076	173.9796905517578	-876.972839355469	
488	2.435	-207.020004272461	1689.188232421875	-1064.388793945313	-337.0045166015626	1646.328125	-1143.4833984375	-383.2921447753907	1631.49169921875	-984.2419433593752	-399.2828063964845	1470.063598632813	-1067.41796875	-458.7692871093751	1178.225463867188	-1034.05126953125	-300.6977844238282	1469.228271484375	-1208.598388671875	-135.0656890869141	1424.95068359375	-1298.351196289063	-108.5595932006836	1436.290893554688	-1255.910034179688	-67.17381286621095	1412.931396484375	-1295.173583984375	-8.700640678405763	1408.365356445313	-1283.025756835938	-27.3159294128418	1333.520263671875	-1261.21484375	239.5603027343751	1407.546875	-1154.840454101563	248.5839385986329	1429.838500976563	-1054.916137695313	-318.6868286132813	1481.010986328125	-908.9843750000002	-167.8571014404297	1447.974609375	-805.2065429687502	-136.7055816650391	1459.25830078125	-843.6423950195315	-98.75942230224612	1441.698852539063	-801.5997314453127	-37.21008682250977	1438.622314453125	-810.9803466796877	-46.42664337158204	1358.54248046875	-819.6701660156252	220.5117645263672	1426.279418945313	-923.044616699219	-318.4003601074219	957.9688110351565	-1103.88525390625	-327.7364501953126	970.5513305664065	-889.4624633789065	-485.3355102539064	1021.628112792969	-1004.547668457031	-492.7864990234376	986.995544433594	-1027.17919921875	-496.6336364746095	998.0258789062502	-972.3873291015627	-320.2362976074219	725.9689331054689	-1171.377319335938	-250.970932006836	677.9562988281251	-1172.647705078125	-211.232650756836	702.6677246093751	-1165.413330078125	-245.9626007080079	618.3300170898439	-1156.811279296875	-162.776351928711	492.1008300781251	-1135.553466796875	-155.5548553466797	499.351043701172	-1014.546997070313	-187.8002014160157	331.2659912109376	-1037.584228515625	-228.5904235839844	286.2210083007813	-1103.0166015625	-199.2717285156251	278.1914672851563	-1063.737915039063	-244.3231506347657	218.0633850097657	-1024.983642578125	-336.1868286132813	124.9623107910157	-1061.980834960938	-314.2235717773438	139.2498321533203	-977.7055664062502	-407.361785888672	111.2610397338867	-1008.538269042969	-201.3312225341797	62.0567970275879	-984.6177368164065	-200.5464019775391	61.2484703063965	-1031.742919921875	-238.4628143310547	48.9439163208008	-1078.486328125	-269.2986145019532	739.7192993164064	-791.7212524414065	-202.1545715332032	728.8004150390626	-796.3865966796877	-181.2200927734375	751.8504638671876	-809.7085571289065	-167.8140258789063	651.8530273437501	-806.581481933594	-105.2989196777344	564.9411010742189	-808.938903808594	-113.7275772094727	545.7616577148439	-928.5603027343752	-18.2915267944336	459.1900329589845	-830.8464355468752	-60.29416656494142	371.4518127441407	-777.525085449219	-20.24299812316895	377.9942932128907	-797.6663208007815	6.085007190704347	332.0207824707032	-820.8441162109377	-3.648692131042481	166.485107421875	-792.5252685546877	-39.96268844604493	100.7911148071289	-830.6033325195315	153.9360046386719	178.4160461425782	-866.1065673828127	161.6512908935547	185.0629577636719	-829.1300048828127	139.0446319580078	155.1226501464844	-773.9541625976565	241.9179992675782	1403.0732421875	-1035.427978515625	-266.2318115234376	1416.680419921875	-1059.397216796875	220.824447631836	1362.213989257813	-1104.083984375	10.15897846221924	174.6039581298828	-876.967224121094	
